<mxfile host="65bd71144e">
    <diagram id="biLYvqsb1aHU3Ox0xCN2" name="Page-1">
        <mxGraphModel dx="795" dy="708" grid="0" gridSize="10" guides="1" tooltips="1" connect="1" arrows="1" fold="1" page="1" pageScale="1" pageWidth="827" pageHeight="1169" background="#ffffff" math="0" shadow="0">
            <root>
                <mxCell id="0"/>
                <mxCell id="1" parent="0"/>
                <mxCell id="16" value="&lt;p style=&quot;margin: 0px ; margin-top: 4px ; text-align: center&quot;&gt;&lt;b&gt;Citizen&lt;/b&gt;&lt;/p&gt;&lt;hr size=&quot;1&quot;&gt;&lt;p style=&quot;margin: 0px ; margin-left: 4px&quot;&gt;id: string&lt;/p&gt;&lt;p style=&quot;margin: 0px ; margin-left: 4px&quot;&gt;&lt;span&gt;lastName: string&lt;/span&gt;&lt;br&gt;&lt;/p&gt;&lt;p style=&quot;margin: 0px ; margin-left: 4px&quot;&gt;firstName: string&lt;/p&gt;&lt;p style=&quot;margin: 0px 0px 0px 4px&quot;&gt;&lt;span&gt;email: string&lt;/span&gt;&lt;br&gt;&lt;/p&gt;&lt;p style=&quot;margin: 0px 0px 0px 4px&quot;&gt;phoneNumber: int&lt;/p&gt;&lt;p style=&quot;margin: 0px ; margin-left: 4px&quot;&gt;category: string&lt;/p&gt;&lt;p style=&quot;margin: 0px 0px 0px 4px&quot;&gt;cvr: int&lt;/p&gt;&lt;p style=&quot;margin: 0px 0px 0px 4px&quot;&gt;cpr: int&lt;/p&gt;&lt;div&gt;&lt;br&gt;&lt;/div&gt;" style="verticalAlign=top;align=left;overflow=fill;fontSize=12;fontFamily=Helvetica;html=1;labelBorderColor=#000000;" parent="1" vertex="1">
                    <mxGeometry x="341" y="648" width="160" height="150" as="geometry"/>
                </mxCell>
                <mxCell id="17" value="&lt;p style=&quot;margin: 0px ; margin-top: 4px ; text-align: center&quot;&gt;&lt;b&gt;Booking&lt;/b&gt;&lt;/p&gt;&lt;hr size=&quot;1&quot;&gt;&lt;p style=&quot;margin: 0px ; margin-left: 4px&quot;&gt;id: string&lt;/p&gt;&lt;p style=&quot;margin: 0px ; margin-left: 4px&quot;&gt;numberOfPeople: int&lt;/p&gt;&lt;p style=&quot;margin: 0px ; margin-left: 4px&quot;&gt;bookingStart: datetime&lt;/p&gt;&lt;p style=&quot;margin: 0px ; margin-left: 4px&quot;&gt;bookingEnd: datetime&lt;/p&gt;&lt;p style=&quot;margin: 0px ; margin-left: 4px&quot;&gt;notes: string&lt;/p&gt;&lt;p style=&quot;margin: 0px ; margin-left: 4px&quot;&gt;facility: Object&lt;/p&gt;&lt;p style=&quot;margin: 0px ; margin-left: 4px&quot;&gt;citizen: Object&lt;/p&gt;&lt;p style=&quot;margin: 0px ; margin-left: 4px&quot;&gt;citizensCPR: List&lt;/p&gt;&lt;p style=&quot;margin: 0px ; margin-left: 4px&quot;&gt;&lt;br&gt;&lt;/p&gt;&lt;p style=&quot;margin: 0px ; margin-left: 4px&quot;&gt;&lt;br&gt;&lt;/p&gt;" style="verticalAlign=top;align=left;overflow=fill;fontSize=12;fontFamily=Helvetica;html=1;labelBorderColor=#000000;" parent="1" vertex="1">
                    <mxGeometry x="341" y="404" width="160" height="150" as="geometry"/>
                </mxCell>
                <mxCell id="34" style="edgeStyle=orthogonalEdgeStyle;rounded=0;html=1;startArrow=none;startFill=0;endArrow=block;endFill=1;entryX=0.5;entryY=0;entryDx=0;entryDy=0;strokeColor=#000000;labelBorderColor=default;exitX=0.5;exitY=1;exitDx=0;exitDy=0;" parent="1" source="19" target="35" edge="1">
                    <mxGeometry relative="1" as="geometry">
                        <mxPoint x="225" y="520" as="targetPoint"/>
                        <Array as="points">
                            <mxPoint x="185" y="684"/>
                            <mxPoint x="150" y="684"/>
                        </Array>
                        <mxPoint x="207" y="684" as="sourcePoint"/>
                    </mxGeometry>
                </mxCell>
                <mxCell id="52" value="n" style="edgeLabel;html=1;align=center;verticalAlign=middle;resizable=0;points=[];labelBackgroundColor=none;fontColor=#000000;labelBorderColor=none;" parent="34" vertex="1" connectable="0">
                    <mxGeometry x="0.699" y="-1" relative="1" as="geometry">
                        <mxPoint x="-9" y="5" as="offset"/>
                    </mxGeometry>
                </mxCell>
                <mxCell id="55" value="1" style="edgeLabel;html=1;align=center;verticalAlign=middle;resizable=0;points=[];fontColor=#000000;labelBackgroundColor=none;labelBorderColor=none;" parent="34" vertex="1" connectable="0">
                    <mxGeometry x="-0.8777" y="-1" relative="1" as="geometry">
                        <mxPoint x="-4" y="3" as="offset"/>
                    </mxGeometry>
                </mxCell>
                <mxCell id="19" value="&lt;p style=&quot;margin: 0px ; margin-top: 4px ; text-align: center&quot;&gt;&lt;b&gt;Facility&lt;/b&gt;&lt;/p&gt;&lt;hr size=&quot;1&quot;&gt;&lt;p style=&quot;margin: 0px ; margin-left: 4px&quot;&gt;&lt;/p&gt;&amp;nbsp;id: string&lt;br&gt;&amp;nbsp;longitude: float&lt;br&gt;&amp;nbsp;latitude: float&lt;br&gt;&amp;nbsp;kind: string&lt;br&gt;&amp;nbsp;description: string&lt;br&gt;&amp;nbsp;usageRules: string&lt;br&gt;&amp;nbsp;reserved: bool&lt;br&gt;&amp;nbsp;maintenanceIntervention: List&lt;br&gt;&amp;nbsp;items: List" style="verticalAlign=top;align=left;overflow=fill;fontSize=12;fontFamily=Helvetica;html=1;labelBorderColor=#000000;" parent="1" vertex="1">
                    <mxGeometry x="89.5" y="501" width="190" height="167" as="geometry"/>
                </mxCell>
                <mxCell id="29" style="edgeStyle=orthogonalEdgeStyle;rounded=0;html=1;startArrow=block;startFill=1;endArrow=block;endFill=1;exitX=0.5;exitY=1;exitDx=0;exitDy=0;strokeColor=#000000;labelBackgroundColor=none;fontColor=#FFFFFF;labelBorderColor=default;" parent="1" source="23" target="19" edge="1">
                    <mxGeometry relative="1" as="geometry">
                        <mxPoint x="269" y="450" as="targetPoint"/>
                        <Array as="points"/>
                    </mxGeometry>
                </mxCell>
                <mxCell id="51" value="n" style="edgeLabel;html=1;align=center;verticalAlign=middle;resizable=0;points=[];labelBackgroundColor=none;fontColor=#000000;labelBorderColor=none;" parent="29" vertex="1" connectable="0">
                    <mxGeometry x="-0.5981" relative="1" as="geometry">
                        <mxPoint x="12" y="-3" as="offset"/>
                    </mxGeometry>
                </mxCell>
                <mxCell id="56" value="1" style="edgeLabel;html=1;align=center;verticalAlign=middle;resizable=0;points=[];fontColor=#000000;labelBackgroundColor=none;labelBorderColor=none;" parent="29" vertex="1" connectable="0">
                    <mxGeometry x="0.6472" y="2" relative="1" as="geometry">
                        <mxPoint x="8" as="offset"/>
                    </mxGeometry>
                </mxCell>
                <mxCell id="23" value="&lt;p style=&quot;margin: 0px ; margin-top: 4px ; text-align: center&quot;&gt;&lt;b&gt;Maintenance Intervention&lt;/b&gt;&lt;/p&gt;&lt;hr size=&quot;1&quot;&gt;&lt;p style=&quot;margin: 0px ; margin-left: 4px&quot;&gt;id: string&lt;/p&gt;&lt;p style=&quot;margin: 0px ; margin-left: 4px&quot;&gt;date: datetime&lt;/p&gt;&lt;p style=&quot;margin: 0px ; margin-left: 4px&quot;&gt;description: string&lt;/p&gt;&lt;p style=&quot;margin: 0px ; margin-left: 4px&quot;&gt;facility: List&lt;/p&gt;&amp;nbsp;" style="verticalAlign=top;align=left;overflow=fill;fontSize=12;fontFamily=Helvetica;html=1;labelBorderColor=#000000;" parent="1" vertex="1">
                    <mxGeometry x="99.5" y="349" width="170" height="100" as="geometry"/>
                </mxCell>
                <mxCell id="35" value="&lt;p style=&quot;margin: 0px ; margin-top: 4px ; text-align: center&quot;&gt;&lt;b&gt;Item&lt;/b&gt;&lt;/p&gt;&lt;hr size=&quot;1&quot;&gt;&lt;p style=&quot;margin: 0px 0px 0px 4px&quot;&gt;id: string&lt;/p&gt;&lt;p style=&quot;margin: 0px 0px 0px 4px&quot;&gt;name: string&lt;/p&gt;&lt;p style=&quot;margin: 0px 0px 0px 4px&quot;&gt;amount: int&lt;/p&gt;&lt;p style=&quot;margin: 0px ; margin-left: 4px&quot;&gt;&lt;span&gt;status: string&lt;/span&gt;&lt;br&gt;&lt;/p&gt;" style="verticalAlign=top;align=left;overflow=fill;fontSize=12;fontFamily=Helvetica;html=1;labelBorderColor=#000000;" parent="1" vertex="1">
                    <mxGeometry x="89.5" y="709" width="120" height="100" as="geometry"/>
                </mxCell>
                <mxCell id="58" style="edgeStyle=orthogonalEdgeStyle;rounded=0;html=1;startArrow=block;startFill=1;endArrow=none;endFill=0;exitX=1;exitY=0.75;exitDx=0;exitDy=0;strokeColor=#000000;labelBackgroundColor=none;fontColor=#FFFFFF;labelBorderColor=default;" edge="1" parent="1" source="19" target="17">
                    <mxGeometry relative="1" as="geometry">
                        <mxPoint x="311" y="553" as="targetPoint"/>
                        <Array as="points"/>
                        <mxPoint x="338" y="644" as="sourcePoint"/>
                    </mxGeometry>
                </mxCell>
                <mxCell id="61" style="edgeStyle=orthogonalEdgeStyle;rounded=0;html=1;startArrow=block;startFill=1;endArrow=none;endFill=0;strokeColor=#000000;labelBackgroundColor=none;fontColor=#FFFFFF;labelBorderColor=default;exitX=0.5;exitY=0;exitDx=0;exitDy=0;" edge="1" parent="1" source="16" target="17">
                    <mxGeometry relative="1" as="geometry">
                        <mxPoint x="622.5" y="522.0004081632652" as="targetPoint"/>
                        <Array as="points"/>
                        <mxPoint x="545" y="616.2300000000001" as="sourcePoint"/>
                    </mxGeometry>
                </mxCell>
                <mxCell id="62" value="1" style="edgeLabel;html=1;align=center;verticalAlign=middle;resizable=0;points=[];labelBackgroundColor=none;fontColor=#0A0A0A;" vertex="1" connectable="0" parent="61">
                    <mxGeometry x="0.8928" relative="1" as="geometry">
                        <mxPoint x="8" y="2" as="offset"/>
                    </mxGeometry>
                </mxCell>
                <mxCell id="63" value="n" style="edgeLabel;html=1;align=center;verticalAlign=middle;resizable=0;points=[];fontColor=#0A0A0A;labelBackgroundColor=none;" vertex="1" connectable="0" parent="61">
                    <mxGeometry x="-0.6517" y="1" relative="1" as="geometry">
                        <mxPoint x="-9" y="8" as="offset"/>
                    </mxGeometry>
                </mxCell>
                <mxCell id="64" value="RFMS_V3 cd" style="shape=umlFrame;whiteSpace=wrap;html=1;labelBackgroundColor=none;fontColor=#ffffff;width=112;height=20;strokeColor=#006EAF;fillColor=#1ba1e2;" vertex="1" parent="1">
                    <mxGeometry x="76" y="308" width="445" height="515" as="geometry"/>
                </mxCell>
            </root>
        </mxGraphModel>
    </diagram>
</mxfile>